<?xml version="1.0" standalone="no"?>
<!DOCTYPE svg PUBLIC "-//W3C//DTD SVG 20010904//EN"
 "http://www.w3.org/TR/2001/REC-SVG-20010904/DTD/svg10.dtd">
<svg version="1.0" xmlns="http://www.w3.org/2000/svg"
 width="200.000000pt" height="200.000000pt" viewBox="0 0 200.000000 200.000000"
 preserveAspectRatio="xMidYMid meet">
<metadata>
Created by potrace 1.11, written by Peter Selinger 2001-2013
</metadata>
<g transform="translate(0.000000,200.000000) scale(0.100000,-0.100000)"
fill="#000000" stroke="none">
<path d="M645 1766 c-64 -28 -60 21 -60 -767 l0 -719 28 -27 27 -28 360 0 360
0 27 28 28 27 3 696 c1 382 -1 709 -6 726 -4 17 -20 41 -36 52 -26 20 -41 21
-364 23 -262 2 -344 0 -367 -11z m140 -221 l0 -50 -45 0 -45 0 -3 39 c-5 59 2
68 50 64 l43 -3 0 -50z m180 0 l0 -50 -50 0 -50 0 -3 39 c-5 60 1 68 55 64
l48 -3 0 -50z m170 0 l0 -50 -50 0 -50 0 -3 39 c-5 60 1 68 55 64 l48 -3 0
-50z m170 0 l0 -50 -45 0 -45 0 -3 39 c-5 59 2 68 50 64 l43 -3 0 -50z m-520
-185 l0 -45 -45 0 c-44 0 -45 1 -48 33 -5 54 2 64 50 60 l43 -3 0 -45z m350 0
l0 -45 -50 0 c-49 0 -50 0 -53 33 -5 55 2 63 55 60 l48 -3 0 -45z m175 0 l0
-50 -50 0 -50 0 0 50 0 50 50 0 50 0 0 -50z m-525 -185 l0 -50 -45 0 -45 0 -3
39 c-5 59 2 68 50 64 l43 -3 0 -50z m180 0 l0 -50 -50 0 -50 0 -3 39 c-5 60 1
68 55 64 l48 -3 0 -50z m165 0 l0 -45 -45 0 -45 0 0 45 0 45 45 0 45 0 0 -45z
m-340 -185 l0 -50 -50 0 -50 0 0 50 0 50 50 0 50 0 0 -50z m345 0 l0 -45 -50
0 c-49 0 -50 0 -53 33 -5 55 2 63 55 60 l48 -3 0 -45z m170 0 l0 -45 -45 0
c-44 0 -45 1 -48 33 -5 54 2 64 50 60 l43 -3 0 -45z m-517 -142 c7 -7 12 -26
12 -43 0 -40 -16 -55 -60 -55 -20 0 -41 5 -48 12 -16 16 -16 70 0 86 16 16 80
16 96 0z m177 -43 l0 -50 -50 0 -50 0 -3 39 c-5 60 1 68 55 64 l48 -3 0 -50z
m333 46 c9 -5 12 -24 10 -52 l-3 -44 -45 0 -45 0 -3 44 c-4 48 6 61 48 61 14
0 31 -4 38 -9z m-177 -181 c14 -8 19 -21 19 -51 0 -33 -4 -41 -25 -51 -18 -8
-35 -9 -53 -2 -22 8 -28 16 -30 49 -5 56 37 82 89 55z m-336 -50 l0 -45 -45 0
c-44 0 -45 1 -48 33 -5 54 2 64 50 60 l43 -3 0 -45z m175 0 l0 -50 -45 0 -45
0 0 50 0 50 45 0 45 0 0 -50z m-172 -212 c7 -7 12 -26 12 -43 0 -40 -16 -55
-60 -55 -44 0 -60 15 -60 55 0 40 16 55 60 55 20 0 41 -5 48 -12z m177 -43 l0
-50 -50 0 -50 0 -3 39 c-5 60 1 68 55 64 l48 -3 0 -50z m170 0 l0 -50 -50 0
-50 0 -3 39 c-5 60 1 68 55 64 l48 -3 0 -50z m180 0 l0 -50 -55 0 -55 0 -3 39
c-5 61 1 67 60 64 l53 -3 0 -50z"/>
</g>
</svg>
