<?xml version="1.0" standalone="no"?>
<!DOCTYPE svg PUBLIC "-//W3C//DTD SVG 20010904//EN"
 "http://www.w3.org/TR/2001/REC-SVG-20010904/DTD/svg10.dtd">
<svg version="1.0" xmlns="http://www.w3.org/2000/svg"
 width="200.000000pt" height="200.000000pt" viewBox="0 0 200.000000 200.000000"
 preserveAspectRatio="xMidYMid meet">
<metadata>
Created by potrace 1.11, written by Peter Selinger 2001-2013
</metadata>
<g transform="translate(0.000000,200.000000) scale(0.100000,-0.100000)"
fill="#000000" stroke="none">
<path d="M833 1793 c92 -2 242 -2 335 0 92 1 16 3 -168 3 -184 0 -260 -2 -167
-3z"/>
<path d="M603 1754 l-33 -32 0 -720 0 -719 22 -28 c41 -52 60 -55 408 -55 348
0 367 3 408 55 l22 28 0 718 0 719 -27 30 -28 31 -370 2 -370 2 -32 -31z m355
-166 c7 -7 12 -26 12 -43 0 -17 -5 -36 -12 -43 -7 -7 -26 -12 -43 -12 -17 0
-36 5 -43 12 -16 16 -16 70 0 86 7 7 26 12 43 12 17 0 36 -5 43 -12z m-170
-23 c-3 -3 -9 2 -12 12 -6 14 -5 15 5 6 7 -7 10 -15 7 -18z m-7 -58 c-10 -9
-11 -8 -5 6 3 10 9 15 12 12 3 -3 0 -11 -7 -18z m349 -147 l0 -50 -45 0 -45 0
0 50 0 50 45 0 45 0 0 -50z m175 0 l0 -45 -45 0 c-44 0 -45 1 -48 33 -5 54 2
64 50 60 l43 -3 0 -45z m-531 -136 c11 -4 16 -19 16 -50 0 -38 -3 -44 -25 -50
-14 -3 -36 -3 -50 0 -22 6 -25 12 -25 50 0 26 5 46 13 49 18 8 53 8 71 1z
m184 -6 c7 -7 12 -26 12 -43 0 -17 -5 -36 -12 -43 -7 -7 -26 -12 -43 -12 -17
0 -36 5 -43 12 -16 16 -16 70 0 86 16 16 70 16 86 0z m-173 -228 l0 -45 -45 0
c-44 0 -45 1 -48 33 -5 54 2 64 50 60 l43 -3 0 -45z m0 -185 l0 -50 -45 0 -45
0 -3 39 c-5 59 2 68 50 64 l43 -3 0 -50z m173 43 c7 -7 12 -26 12 -43 0 -17
-5 -36 -12 -43 -7 -7 -26 -12 -43 -12 -17 0 -36 5 -43 12 -16 16 -16 70 0 86
16 16 70 16 86 0z m177 -228 l0 -45 -50 0 c-49 0 -50 0 -53 33 -5 55 2 63 55
60 l48 -3 0 -45z m170 -255 l0 -50 -45 0 -45 0 -3 39 c-5 59 2 68 50 64 l43
-3 0 -50z"/>
<path d="M1220 1360 l0 -40 40 0 40 0 0 40 0 40 -40 0 -40 0 0 -40z"/>
<path d="M700 990 l0 -40 40 0 40 0 0 40 0 40 -40 0 -40 0 0 -40z"/>
</g>
</svg>
